<svg width="24" height="24" viewBox="0 0 24 24" fill="none" xmlns="http://www.w3.org/2000/svg">
<path d="M21.7593 1.65115C21.9318 1.44959 22.0173 1.18773 21.9968 0.923175C21.9763 0.658624 21.8515 0.413053 21.6499 0.240486C21.4484 0.0679182 21.1865 -0.0175102 20.922 0.00299378C20.6574 0.0234978 20.4118 0.148255 20.2393 0.349819L13.0819 8.71515L6.11661 0.797819C5.88896 0.544029 5.60985 0.341654 5.29787 0.204171C4.98589 0.0666873 4.64819 -0.00274908 4.30728 0.000485614H2.34195C1.43528 0.000485614 0.656612 0.469819 0.261945 1.18049C0.0514163 1.55778 -0.0355685 1.99158 0.0132208 2.42088C0.0620101 2.85017 0.24412 3.25338 0.533945 3.57382L8.91528 13.1032L1.57261 21.6832C1.48716 21.783 1.42221 21.8986 1.38146 22.0235C1.34072 22.1484 1.32497 22.2801 1.33512 22.4111C1.34527 22.5421 1.38113 22.6698 1.44063 22.787C1.50014 22.9041 1.58214 23.0084 1.68195 23.0938C1.78175 23.1793 1.89741 23.2442 2.02231 23.285C2.14722 23.3257 2.27893 23.3415 2.40992 23.3313C2.54092 23.3212 2.66862 23.2853 2.78576 23.2258C2.9029 23.1663 3.00717 23.0843 3.09261 22.9845L10.2499 14.6192L17.2153 22.5365C17.6753 23.0592 18.3486 23.3338 19.0246 23.3338H20.9899C21.8979 23.3338 22.6753 22.8645 23.0699 22.1538C23.2806 21.7767 23.3679 21.3429 23.3193 20.9136C23.2708 20.4844 23.0889 20.0811 22.7993 19.7605L14.4166 10.2325L21.7593 1.65115Z" fill="#0F9D45"/>
</svg>
